<svg xmlns="http://www.w3.org/2000/svg" width="64" height="64" viewBox="0 0 64 64">
  <defs>
    <linearGradient id="g1" x1="0" y1="0" x2="64" y2="64" gradientUnits="userSpaceOnUse">
      <stop offset="0%" stop-color="#6c63ff"/>
      <stop offset="100%" stop-color="#e563ff"/>
    </linearGradient>
    <linearGradient id="g2" x1="0" y1="0" x2="64" y2="64" gradientUnits="userSpaceOnUse">
      <stop offset="0%" stop-color="#63ffd9"/>
      <stop offset="100%" stop-color="#6c63ff"/>
    </linearGradient>
    <clipPath id="squircle">
      <path d="M32 0c21.5 0 32 10.5 32 32s-10.5 32-32 32S0 53.5 0 32 10.5 0 32 0z"/>
    </clipPath>
  </defs>

  <!-- Squircle background -->
  <path d="M32 0c21.5 0 32 10.5 32 32s-10.5 32-32 32S0 53.5 0 32 10.5 0 32 0z" fill="#0a0a16"/>

  <!-- Subtle border glow -->
  <path d="M32 1.5c20.5 0 30.5 10 30.5 30.5s-10 30.5-30.5 30.5S1.5 52.5 1.5 32 11.5 1.5 32 1.5z" fill="none" stroke="url(#g1)" stroke-width="1" opacity="0.3"/>

  <!-- Accent glow orb top-right -->
  <circle cx="48" cy="14" r="18" fill="#6c63ff" opacity="0.08"/>

  <!-- Accent glow orb bottom-left -->
  <circle cx="16" cy="50" r="14" fill="#e563ff" opacity="0.06"/>

  <!-- Code bracket left < -->
  <path d="M18 24l-6 8 6 8" fill="none" stroke="url(#g2)" stroke-width="2.5" stroke-linecap="round" stroke-linejoin="round" opacity="0.5"/>

  <!-- Code bracket right > -->
  <path d="M46 24l6 8-6 8" fill="none" stroke="url(#g2)" stroke-width="2.5" stroke-linecap="round" stroke-linejoin="round" opacity="0.5"/>

  <!-- Stylized S letterform -->
  <path d="M36.5 19c0 0-2-1.5-5-1.5-3.5 0-6 2-6 5 0 3.5 3 4.5 6 5.5 3 1 6 2.2 6 5.8 0 3.2-2.8 5.2-6.2 5.2-3.5 0-5.3-1.8-5.3-1.8" fill="none" stroke="url(#g1)" stroke-width="3.5" stroke-linecap="round" stroke-linejoin="round"/>

  <!-- Small cursor dot -->
  <circle cx="38" cy="38.5" r="1.5" fill="#63ffd9" opacity="0.9"/>
</svg>
